<svg width="50" height="50" viewBox="0 0 50 50" fill="none" xmlns="http://www.w3.org/2000/svg">
<circle cx="25" cy="25" r="25" fill="black"/>
<path d="M9.47266 11.5156H16.6602L32.8516 31.3789V16.1055C32.8516 14.4779 32.6693 13.4622 32.3047 13.0586C31.8229 12.5117 31.0612 12.2383 30.0195 12.2383H29.1016V11.5156H38.3203V12.2383H37.3828C36.263 12.2383 35.4688 12.5768 35 13.2539C34.7135 13.6706 34.5703 14.6211 34.5703 16.1055V38.4297H33.8672L16.4062 17.1016V33.4102C16.4062 35.0378 16.582 36.0534 16.9336 36.457C17.4284 37.0039 18.1901 37.2773 19.2188 37.2773H20.1562V38H10.9375V37.2773H11.8555C12.9883 37.2773 13.7891 36.9388 14.2578 36.2617C14.5443 35.8451 14.6875 34.8945 14.6875 33.4102V14.9922C13.9193 14.0938 13.3333 13.5013 12.9297 13.2148C12.5391 12.9284 11.9596 12.6615 11.1914 12.4141C10.8138 12.2969 10.2409 12.2383 9.47266 12.2383V11.5156Z" fill="white"/>
</svg>
